<mxfile host="app.diagrams.net" agent="Mozilla/5.0 (Windows NT 10.0; Win64; x64) AppleWebKit/537.36 (KHTML, like Gecko) Chrome/138.0.0.0 Safari/537.36" version="28.0.3">
  <diagram name="Page-1" id="Al7QjbqufYFulofu-Pkl">
    <mxGraphModel dx="1213" dy="811" grid="1" gridSize="10" guides="1" tooltips="1" connect="1" arrows="1" fold="1" page="1" pageScale="1" pageWidth="1169" pageHeight="827" math="0" shadow="0">
      <root>
        <mxCell id="0" />
        <mxCell id="1" parent="0" />
        <mxCell id="Yz96Kts3AmMaeLNxN6-e-9" style="edgeStyle=orthogonalEdgeStyle;rounded=0;orthogonalLoop=1;jettySize=auto;html=1;exitX=1;exitY=0.5;exitDx=0;exitDy=0;entryX=0;entryY=0.5;entryDx=0;entryDy=0;" edge="1" parent="1" source="Yz96Kts3AmMaeLNxN6-e-2" target="Yz96Kts3AmMaeLNxN6-e-3">
          <mxGeometry relative="1" as="geometry" />
        </mxCell>
        <mxCell id="Yz96Kts3AmMaeLNxN6-e-2" value="&lt;font style=&quot;font-size: 18px;&quot;&gt;Generation&lt;/font&gt;" style="rounded=0;whiteSpace=wrap;html=1;" vertex="1" parent="1">
          <mxGeometry x="40" y="50" width="170" height="50" as="geometry" />
        </mxCell>
        <mxCell id="Yz96Kts3AmMaeLNxN6-e-10" style="edgeStyle=orthogonalEdgeStyle;rounded=0;orthogonalLoop=1;jettySize=auto;html=1;exitX=1;exitY=0.5;exitDx=0;exitDy=0;entryX=0;entryY=0.5;entryDx=0;entryDy=0;" edge="1" parent="1" source="Yz96Kts3AmMaeLNxN6-e-3" target="Yz96Kts3AmMaeLNxN6-e-6">
          <mxGeometry relative="1" as="geometry" />
        </mxCell>
        <mxCell id="Yz96Kts3AmMaeLNxN6-e-50" style="edgeStyle=orthogonalEdgeStyle;rounded=0;orthogonalLoop=1;jettySize=auto;html=1;exitX=0.5;exitY=1;exitDx=0;exitDy=0;entryX=0.5;entryY=0;entryDx=0;entryDy=0;" edge="1" parent="1" source="Yz96Kts3AmMaeLNxN6-e-3" target="Yz96Kts3AmMaeLNxN6-e-35">
          <mxGeometry relative="1" as="geometry">
            <mxPoint x="310" y="150" as="targetPoint" />
          </mxGeometry>
        </mxCell>
        <mxCell id="Yz96Kts3AmMaeLNxN6-e-54" style="edgeStyle=orthogonalEdgeStyle;rounded=0;orthogonalLoop=1;jettySize=auto;html=1;exitX=0.5;exitY=1;exitDx=0;exitDy=0;entryX=0.5;entryY=0;entryDx=0;entryDy=0;" edge="1" parent="1" source="Yz96Kts3AmMaeLNxN6-e-3" target="Yz96Kts3AmMaeLNxN6-e-53">
          <mxGeometry relative="1" as="geometry" />
        </mxCell>
        <mxCell id="Yz96Kts3AmMaeLNxN6-e-3" value="&lt;font style=&quot;font-size: 18px;&quot;&gt;Ingestion&lt;/font&gt;" style="rounded=0;whiteSpace=wrap;html=1;" vertex="1" parent="1">
          <mxGeometry x="260" y="50" width="170" height="50" as="geometry" />
        </mxCell>
        <mxCell id="Yz96Kts3AmMaeLNxN6-e-16" style="edgeStyle=orthogonalEdgeStyle;rounded=0;orthogonalLoop=1;jettySize=auto;html=1;exitX=0.5;exitY=0;exitDx=0;exitDy=0;entryX=0.5;entryY=1;entryDx=0;entryDy=0;" edge="1" parent="1" source="Yz96Kts3AmMaeLNxN6-e-15" target="Yz96Kts3AmMaeLNxN6-e-4">
          <mxGeometry relative="1" as="geometry" />
        </mxCell>
        <mxCell id="Yz96Kts3AmMaeLNxN6-e-28" style="edgeStyle=orthogonalEdgeStyle;rounded=0;orthogonalLoop=1;jettySize=auto;html=1;entryX=0.5;entryY=1;entryDx=0;entryDy=0;" edge="1" parent="1" source="Yz96Kts3AmMaeLNxN6-e-24" target="Yz96Kts3AmMaeLNxN6-e-4">
          <mxGeometry relative="1" as="geometry">
            <Array as="points">
              <mxPoint x="140" y="220" />
              <mxPoint x="120" y="220" />
            </Array>
          </mxGeometry>
        </mxCell>
        <mxCell id="Yz96Kts3AmMaeLNxN6-e-4" value="SaaS Application" style="ellipse;whiteSpace=wrap;html=1;" vertex="1" parent="1">
          <mxGeometry x="30" y="160" width="180" height="40" as="geometry" />
        </mxCell>
        <mxCell id="Yz96Kts3AmMaeLNxN6-e-11" style="edgeStyle=orthogonalEdgeStyle;rounded=0;orthogonalLoop=1;jettySize=auto;html=1;exitX=1;exitY=0.5;exitDx=0;exitDy=0;entryX=0;entryY=0.5;entryDx=0;entryDy=0;" edge="1" parent="1" source="Yz96Kts3AmMaeLNxN6-e-6" target="Yz96Kts3AmMaeLNxN6-e-7">
          <mxGeometry relative="1" as="geometry" />
        </mxCell>
        <mxCell id="Yz96Kts3AmMaeLNxN6-e-6" value="&lt;font style=&quot;font-size: 18px;&quot;&gt;Storage&lt;/font&gt;" style="rounded=0;whiteSpace=wrap;html=1;" vertex="1" parent="1">
          <mxGeometry x="480" y="50" width="170" height="50" as="geometry" />
        </mxCell>
        <mxCell id="Yz96Kts3AmMaeLNxN6-e-12" style="edgeStyle=orthogonalEdgeStyle;rounded=0;orthogonalLoop=1;jettySize=auto;html=1;exitX=1;exitY=0.5;exitDx=0;exitDy=0;" edge="1" parent="1" source="Yz96Kts3AmMaeLNxN6-e-7" target="Yz96Kts3AmMaeLNxN6-e-8">
          <mxGeometry relative="1" as="geometry" />
        </mxCell>
        <mxCell id="Yz96Kts3AmMaeLNxN6-e-7" value="&lt;font style=&quot;font-size: 18px;&quot;&gt;Compute&lt;/font&gt;" style="rounded=0;whiteSpace=wrap;html=1;" vertex="1" parent="1">
          <mxGeometry x="700" y="50" width="170" height="50" as="geometry" />
        </mxCell>
        <mxCell id="Yz96Kts3AmMaeLNxN6-e-94" style="edgeStyle=orthogonalEdgeStyle;rounded=0;orthogonalLoop=1;jettySize=auto;html=1;exitX=0.5;exitY=1;exitDx=0;exitDy=0;entryX=0.5;entryY=0;entryDx=0;entryDy=0;" edge="1" parent="1" source="Yz96Kts3AmMaeLNxN6-e-8" target="Yz96Kts3AmMaeLNxN6-e-91">
          <mxGeometry relative="1" as="geometry" />
        </mxCell>
        <mxCell id="Yz96Kts3AmMaeLNxN6-e-8" value="&lt;font style=&quot;font-size: 18px;&quot;&gt;Consume&lt;/font&gt;" style="rounded=0;whiteSpace=wrap;html=1;" vertex="1" parent="1">
          <mxGeometry x="920" y="50" width="170" height="50" as="geometry" />
        </mxCell>
        <mxCell id="Yz96Kts3AmMaeLNxN6-e-13" value="" style="sketch=0;outlineConnect=0;fontColor=#232F3E;gradientColor=none;fillColor=#232F3D;strokeColor=none;dashed=0;verticalLabelPosition=bottom;verticalAlign=top;align=center;html=1;fontSize=12;fontStyle=0;aspect=fixed;pointerEvents=1;shape=mxgraph.aws4.chat;" vertex="1" parent="1">
          <mxGeometry x="144.12" y="210" width="45.88" height="40" as="geometry" />
        </mxCell>
        <mxCell id="Yz96Kts3AmMaeLNxN6-e-39" style="edgeStyle=orthogonalEdgeStyle;rounded=0;orthogonalLoop=1;jettySize=auto;html=1;exitX=0.404;exitY=-0.017;exitDx=0;exitDy=0;entryX=0;entryY=1;entryDx=0;entryDy=0;exitPerimeter=0;" edge="1" parent="1" source="Yz96Kts3AmMaeLNxN6-e-41" target="Yz96Kts3AmMaeLNxN6-e-15">
          <mxGeometry relative="1" as="geometry">
            <mxPoint x="19" y="350" as="sourcePoint" />
          </mxGeometry>
        </mxCell>
        <mxCell id="Yz96Kts3AmMaeLNxN6-e-15" value="Chatbot Usage data" style="ellipse;whiteSpace=wrap;html=1;" vertex="1" parent="1">
          <mxGeometry y="240" width="130" height="50" as="geometry" />
        </mxCell>
        <mxCell id="Yz96Kts3AmMaeLNxN6-e-32" style="edgeStyle=orthogonalEdgeStyle;rounded=0;orthogonalLoop=1;jettySize=auto;html=1;exitX=0.5;exitY=1;exitDx=0;exitDy=0;entryX=0.5;entryY=0;entryDx=0;entryDy=0;" edge="1" parent="1" source="Yz96Kts3AmMaeLNxN6-e-17" target="Yz96Kts3AmMaeLNxN6-e-31">
          <mxGeometry relative="1" as="geometry" />
        </mxCell>
        <mxCell id="Yz96Kts3AmMaeLNxN6-e-17" value="&lt;font style=&quot;font-size: 18px;&quot;&gt;Tools&lt;/font&gt;" style="rounded=0;whiteSpace=wrap;html=1;fillColor=#1ba1e2;fontColor=#ffffff;strokeColor=#006EAF;" vertex="1" parent="1">
          <mxGeometry x="25" y="520" width="170" height="50" as="geometry" />
        </mxCell>
        <mxCell id="Yz96Kts3AmMaeLNxN6-e-45" style="edgeStyle=orthogonalEdgeStyle;rounded=0;orthogonalLoop=1;jettySize=auto;html=1;exitX=0.5;exitY=0;exitDx=0;exitDy=0;entryX=1;entryY=1;entryDx=0;entryDy=0;" edge="1" parent="1" source="Yz96Kts3AmMaeLNxN6-e-40" target="Yz96Kts3AmMaeLNxN6-e-24">
          <mxGeometry relative="1" as="geometry" />
        </mxCell>
        <mxCell id="Yz96Kts3AmMaeLNxN6-e-24" value="Metadata" style="ellipse;whiteSpace=wrap;html=1;" vertex="1" parent="1">
          <mxGeometry x="60" y="300" width="130" height="50" as="geometry" />
        </mxCell>
        <mxCell id="Yz96Kts3AmMaeLNxN6-e-26" value="Node.js middleware to intercept/chat log interactions" style="rounded=1;whiteSpace=wrap;html=1;" vertex="1" parent="1">
          <mxGeometry x="20" y="670" width="180" height="40" as="geometry" />
        </mxCell>
        <mxCell id="Yz96Kts3AmMaeLNxN6-e-33" style="edgeStyle=orthogonalEdgeStyle;rounded=0;orthogonalLoop=1;jettySize=auto;html=1;exitX=0.5;exitY=1;exitDx=0;exitDy=0;entryX=0.5;entryY=0;entryDx=0;entryDy=0;" edge="1" parent="1" source="Yz96Kts3AmMaeLNxN6-e-31" target="Yz96Kts3AmMaeLNxN6-e-26">
          <mxGeometry relative="1" as="geometry" />
        </mxCell>
        <mxCell id="Yz96Kts3AmMaeLNxN6-e-31" value="Inside the chatbot logic" style="rounded=1;whiteSpace=wrap;html=1;" vertex="1" parent="1">
          <mxGeometry x="20" y="600" width="180" height="40" as="geometry" />
        </mxCell>
        <mxCell id="Yz96Kts3AmMaeLNxN6-e-35" value="SQL&amp;nbsp;&lt;span style=&quot;background-color: transparent; color: light-dark(rgb(0, 0, 0), rgb(255, 255, 255));&quot;&gt;database&lt;/span&gt;&lt;div&gt;&lt;span style=&quot;background-color: transparent; color: light-dark(rgb(0, 0, 0), rgb(255, 255, 255));&quot;&gt;Highly structured data&lt;/span&gt;&lt;/div&gt;" style="ellipse;whiteSpace=wrap;html=1;" vertex="1" parent="1">
          <mxGeometry x="230" y="155" width="120" height="50" as="geometry" />
        </mxCell>
        <mxCell id="Yz96Kts3AmMaeLNxN6-e-40" value="Session ID&lt;div&gt;User ID&lt;/div&gt;&lt;div&gt;Bot ID&lt;/div&gt;&lt;div&gt;Bot Configuration&lt;/div&gt;&lt;div&gt;User age&lt;/div&gt;&lt;div&gt;User location&lt;/div&gt;&lt;div&gt;User geder&lt;/div&gt;&lt;div&gt;Email&lt;/div&gt;" style="rounded=1;whiteSpace=wrap;html=1;" vertex="1" parent="1">
          <mxGeometry x="130" y="370" width="100" height="120" as="geometry" />
        </mxCell>
        <mxCell id="Yz96Kts3AmMaeLNxN6-e-41" value="User messages&lt;div&gt;Bot replies&lt;/div&gt;&lt;div&gt;Timestamps&lt;/div&gt;&lt;div&gt;Tool callings&lt;/div&gt;&lt;div&gt;Token utilization&lt;/div&gt;&lt;div&gt;Sentiment feedback&lt;/div&gt;&lt;div&gt;&lt;div&gt;Language&lt;/div&gt;&lt;/div&gt;" style="rounded=1;whiteSpace=wrap;html=1;" vertex="1" parent="1">
          <mxGeometry x="10" y="370" width="110" height="120" as="geometry" />
        </mxCell>
        <mxCell id="Yz96Kts3AmMaeLNxN6-e-92" style="edgeStyle=orthogonalEdgeStyle;rounded=0;orthogonalLoop=1;jettySize=auto;html=1;exitX=0.5;exitY=1;exitDx=0;exitDy=0;entryX=0.5;entryY=0;entryDx=0;entryDy=0;" edge="1" parent="1" source="Yz96Kts3AmMaeLNxN6-e-42" target="Yz96Kts3AmMaeLNxN6-e-43">
          <mxGeometry relative="1" as="geometry" />
        </mxCell>
        <mxCell id="Yz96Kts3AmMaeLNxN6-e-42" value="&lt;font style=&quot;font-size: 18px;&quot;&gt;Tools&lt;/font&gt;" style="rounded=0;whiteSpace=wrap;html=1;fillColor=#1ba1e2;fontColor=#ffffff;strokeColor=#006EAF;" vertex="1" parent="1">
          <mxGeometry x="260" y="380" width="170" height="50" as="geometry" />
        </mxCell>
        <mxCell id="Yz96Kts3AmMaeLNxN6-e-93" style="edgeStyle=orthogonalEdgeStyle;rounded=0;orthogonalLoop=1;jettySize=auto;html=1;exitX=0.5;exitY=1;exitDx=0;exitDy=0;entryX=0.5;entryY=0;entryDx=0;entryDy=0;" edge="1" parent="1" source="Yz96Kts3AmMaeLNxN6-e-43" target="Yz96Kts3AmMaeLNxN6-e-55">
          <mxGeometry relative="1" as="geometry" />
        </mxCell>
        <mxCell id="Yz96Kts3AmMaeLNxN6-e-43" value="&lt;span style=&quot;text-align: left;&quot;&gt;PostgreSQL&lt;/span&gt;&lt;div&gt;&lt;span style=&quot;text-align: left;&quot;&gt;MySQL&lt;/span&gt;&lt;/div&gt;" style="rounded=1;whiteSpace=wrap;html=1;" vertex="1" parent="1">
          <mxGeometry x="255" y="470" width="180" height="40" as="geometry" />
        </mxCell>
        <mxCell id="Yz96Kts3AmMaeLNxN6-e-44" value="&lt;font style=&quot;font-size: 18px;&quot;&gt;Nameme avatars DATA lifecycle&lt;/font&gt;" style="rounded=0;whiteSpace=wrap;html=1;" vertex="1" parent="1">
          <mxGeometry x="444" width="280" height="40" as="geometry" />
        </mxCell>
        <mxCell id="Yz96Kts3AmMaeLNxN6-e-49" style="edgeStyle=orthogonalEdgeStyle;rounded=0;orthogonalLoop=1;jettySize=auto;html=1;exitX=0.5;exitY=0;exitDx=0;exitDy=0;entryX=0.465;entryY=1.053;entryDx=0;entryDy=0;entryPerimeter=0;" edge="1" parent="1" source="Yz96Kts3AmMaeLNxN6-e-4" target="Yz96Kts3AmMaeLNxN6-e-2">
          <mxGeometry relative="1" as="geometry" />
        </mxCell>
        <mxCell id="Yz96Kts3AmMaeLNxN6-e-51" value="Strong consistency&lt;div&gt;Query capabilities&lt;/div&gt;" style="rounded=1;whiteSpace=wrap;html=1;" vertex="1" parent="1">
          <mxGeometry x="230" y="240" width="120" height="50" as="geometry" />
        </mxCell>
        <mxCell id="Yz96Kts3AmMaeLNxN6-e-62" style="edgeStyle=orthogonalEdgeStyle;rounded=0;orthogonalLoop=1;jettySize=auto;html=1;exitX=0.5;exitY=1;exitDx=0;exitDy=0;entryX=0.5;entryY=0;entryDx=0;entryDy=0;" edge="1" parent="1" source="Yz96Kts3AmMaeLNxN6-e-53" target="Yz96Kts3AmMaeLNxN6-e-61">
          <mxGeometry relative="1" as="geometry" />
        </mxCell>
        <mxCell id="Yz96Kts3AmMaeLNxN6-e-53" value="NoSQL&amp;nbsp;&lt;span style=&quot;background-color: transparent; color: light-dark(rgb(0, 0, 0), rgb(255, 255, 255));&quot;&gt;database&lt;/span&gt;&lt;div&gt;&lt;span style=&quot;background-color: transparent; color: light-dark(rgb(0, 0, 0), rgb(255, 255, 255));&quot;&gt;Schema Flexibility&lt;/span&gt;&lt;/div&gt;" style="ellipse;whiteSpace=wrap;html=1;" vertex="1" parent="1">
          <mxGeometry x="360" y="155" width="110" height="50" as="geometry" />
        </mxCell>
        <mxCell id="Yz96Kts3AmMaeLNxN6-e-55" value="&lt;div style=&quot;text-align: left;&quot;&gt;&lt;span style=&quot;background-color: transparent; color: light-dark(rgb(0, 0, 0), rgb(255, 255, 255)); text-align: center;&quot;&gt;Object-Relational Mapping&lt;/span&gt;&lt;span style=&quot;background-color: transparent;&quot;&gt;* libraries:&lt;/span&gt;&lt;/div&gt;&lt;div style=&quot;text-align: left;&quot;&gt;&lt;span style=&quot;background-color: transparent; text-align: center;&quot;&gt;Drizzle ORM, Prisma ORM, TypeORM, Sequelize, and MikroORM&lt;/span&gt;&lt;span style=&quot;background-color: transparent;&quot;&gt;&amp;nbsp;&lt;/span&gt;&lt;/div&gt;" style="rounded=1;whiteSpace=wrap;html=1;" vertex="1" parent="1">
          <mxGeometry x="240" y="530" width="210" height="60" as="geometry" />
        </mxCell>
        <mxCell id="Yz96Kts3AmMaeLNxN6-e-58" value="*&amp;nbsp;Object-Relational Mapping is a technique that lets you query and manipulate data from a database using an object-oriented paradigm.&lt;div&gt;**&amp;nbsp;&lt;a href=&quot;https://www.datacamp.com/blog/a-list-of-the-16-best-etl-tools-and-why-to-choose-them&quot;&gt;https://www.datacamp.com/blog/a-list-of-the-16-best-etl-tools-and-why-to-choose-them&lt;/a&gt;&amp;nbsp;&lt;/div&gt;" style="rounded=1;whiteSpace=wrap;html=1;" vertex="1" parent="1">
          <mxGeometry x="40" y="730" width="370" height="80" as="geometry" />
        </mxCell>
        <mxCell id="Yz96Kts3AmMaeLNxN6-e-61" value="Ease of scalability" style="rounded=1;whiteSpace=wrap;html=1;" vertex="1" parent="1">
          <mxGeometry x="365" y="245" width="100" height="40" as="geometry" />
        </mxCell>
        <mxCell id="Yz96Kts3AmMaeLNxN6-e-63" style="edgeStyle=orthogonalEdgeStyle;rounded=0;orthogonalLoop=1;jettySize=auto;html=1;exitX=0.5;exitY=1;exitDx=0;exitDy=0;entryX=0.455;entryY=0.063;entryDx=0;entryDy=0;entryPerimeter=0;" edge="1" parent="1" source="Yz96Kts3AmMaeLNxN6-e-35" target="Yz96Kts3AmMaeLNxN6-e-51">
          <mxGeometry relative="1" as="geometry" />
        </mxCell>
        <mxCell id="Yz96Kts3AmMaeLNxN6-e-65" value="&lt;font style=&quot;font-size: 14px;&quot;&gt;Data Warehouse to store the data&lt;/font&gt;" style="rounded=1;whiteSpace=wrap;html=1;" vertex="1" parent="1">
          <mxGeometry x="529" y="205" width="110" height="40" as="geometry" />
        </mxCell>
        <mxCell id="Yz96Kts3AmMaeLNxN6-e-64" value="" style="image;aspect=fixed;html=1;points=[];align=center;fontSize=12;image=img/lib/azure2/databases/SQL_Data_Warehouses.svg;" vertex="1" parent="1">
          <mxGeometry x="615.69" y="175" width="44.31" height="45" as="geometry" />
        </mxCell>
        <mxCell id="Yz96Kts3AmMaeLNxN6-e-96" style="edgeStyle=orthogonalEdgeStyle;rounded=0;orthogonalLoop=1;jettySize=auto;html=1;exitX=0.5;exitY=1;exitDx=0;exitDy=0;entryX=0.5;entryY=0;entryDx=0;entryDy=0;" edge="1" parent="1" source="Yz96Kts3AmMaeLNxN6-e-67" target="Yz96Kts3AmMaeLNxN6-e-68">
          <mxGeometry relative="1" as="geometry" />
        </mxCell>
        <mxCell id="Yz96Kts3AmMaeLNxN6-e-67" value="&lt;font style=&quot;font-size: 18px;&quot;&gt;ETL Tools**&lt;/font&gt;" style="rounded=0;whiteSpace=wrap;html=1;fillColor=#1ba1e2;fontColor=#ffffff;strokeColor=#006EAF;" vertex="1" parent="1">
          <mxGeometry x="585" y="414" width="170" height="50" as="geometry" />
        </mxCell>
        <mxCell id="Yz96Kts3AmMaeLNxN6-e-68" value="&lt;div&gt;Apache Airflow&lt;/div&gt;&lt;div&gt;Apache NiFi&amp;nbsp;&lt;/div&gt;&lt;div&gt;AWS Glue&lt;/div&gt;&lt;div&gt;Hadoop&amp;nbsp;&lt;/div&gt;&lt;div&gt;Portable.io&lt;/div&gt;&lt;div&gt;Airbyte&lt;/div&gt;" style="rounded=1;whiteSpace=wrap;html=1;" vertex="1" parent="1">
          <mxGeometry x="480" y="500" width="380" height="100" as="geometry" />
        </mxCell>
        <mxCell id="Yz96Kts3AmMaeLNxN6-e-73" style="edgeStyle=orthogonalEdgeStyle;rounded=0;orthogonalLoop=1;jettySize=auto;html=1;exitX=0.5;exitY=1;exitDx=0;exitDy=0;entryX=0.5;entryY=0;entryDx=0;entryDy=0;" edge="1" parent="1" source="Yz96Kts3AmMaeLNxN6-e-69" target="Yz96Kts3AmMaeLNxN6-e-71">
          <mxGeometry relative="1" as="geometry" />
        </mxCell>
        <mxCell id="Yz96Kts3AmMaeLNxN6-e-69" value="&lt;font style=&quot;font-size: 14px;&quot;&gt;Batch Processing&lt;/font&gt;" style="rounded=1;whiteSpace=wrap;html=1;" vertex="1" parent="1">
          <mxGeometry x="730" y="200" width="120" height="40" as="geometry" />
        </mxCell>
        <mxCell id="Yz96Kts3AmMaeLNxN6-e-71" value="&lt;div&gt;KPIs:&lt;/div&gt;&lt;div&gt;&lt;br&gt;&lt;/div&gt;Session length&lt;div&gt;Top questions&lt;/div&gt;&lt;div&gt;Usage spikes&lt;/div&gt;&lt;div&gt;Number of taks solved&lt;/div&gt;&lt;div&gt;&lt;div&gt;&lt;div&gt;&lt;div&gt;...&lt;/div&gt;&lt;/div&gt;&lt;/div&gt;&lt;/div&gt;" style="rounded=1;whiteSpace=wrap;html=1;" vertex="1" parent="1">
          <mxGeometry x="725" y="280" width="130" height="120" as="geometry" />
        </mxCell>
        <mxCell id="Yz96Kts3AmMaeLNxN6-e-76" value="" style="html=1;verticalLabelPosition=bottom;align=center;labelBackgroundColor=#ffffff;verticalAlign=top;strokeWidth=2;strokeColor=#0080F0;shadow=0;dashed=0;shape=mxgraph.ios7.icons.alarm_clock;" vertex="1" parent="1">
          <mxGeometry x="823" y="175" width="27" height="30" as="geometry" />
        </mxCell>
        <mxCell id="Yz96Kts3AmMaeLNxN6-e-78" value="" style="shape=cylinder3;whiteSpace=wrap;html=1;boundedLbl=1;backgroundOutline=1;size=4.00006103515625;" vertex="1" parent="1">
          <mxGeometry x="320" y="142" width="20" height="20" as="geometry" />
        </mxCell>
        <mxCell id="Yz96Kts3AmMaeLNxN6-e-84" style="edgeStyle=orthogonalEdgeStyle;rounded=0;orthogonalLoop=1;jettySize=auto;html=1;exitX=0.25;exitY=1;exitDx=0;exitDy=0;" edge="1" parent="1" source="Yz96Kts3AmMaeLNxN6-e-79">
          <mxGeometry relative="1" as="geometry">
            <mxPoint x="577.6666666666666" y="200" as="targetPoint" />
          </mxGeometry>
        </mxCell>
        <mxCell id="Yz96Kts3AmMaeLNxN6-e-79" value="&lt;font style=&quot;font-size: 18px;&quot;&gt;ETL&lt;/font&gt;" style="rounded=1;whiteSpace=wrap;html=1;" vertex="1" parent="1">
          <mxGeometry x="480" y="130" width="390" height="30" as="geometry" />
        </mxCell>
        <mxCell id="Yz96Kts3AmMaeLNxN6-e-80" style="edgeStyle=orthogonalEdgeStyle;rounded=0;orthogonalLoop=1;jettySize=auto;html=1;exitX=0.5;exitY=1;exitDx=0;exitDy=0;entryX=0.221;entryY=-0.089;entryDx=0;entryDy=0;entryPerimeter=0;" edge="1" parent="1" source="Yz96Kts3AmMaeLNxN6-e-6" target="Yz96Kts3AmMaeLNxN6-e-79">
          <mxGeometry relative="1" as="geometry" />
        </mxCell>
        <mxCell id="Yz96Kts3AmMaeLNxN6-e-81" style="edgeStyle=orthogonalEdgeStyle;rounded=0;orthogonalLoop=1;jettySize=auto;html=1;exitX=0.5;exitY=1;exitDx=0;exitDy=0;entryX=0.779;entryY=-0.089;entryDx=0;entryDy=0;entryPerimeter=0;" edge="1" parent="1" source="Yz96Kts3AmMaeLNxN6-e-7" target="Yz96Kts3AmMaeLNxN6-e-79">
          <mxGeometry relative="1" as="geometry" />
        </mxCell>
        <mxCell id="Yz96Kts3AmMaeLNxN6-e-83" style="edgeStyle=orthogonalEdgeStyle;rounded=0;orthogonalLoop=1;jettySize=auto;html=1;exitX=0.797;exitY=1.007;exitDx=0;exitDy=0;entryX=0.5;entryY=0;entryDx=0;entryDy=0;exitPerimeter=0;" edge="1" parent="1" source="Yz96Kts3AmMaeLNxN6-e-79" target="Yz96Kts3AmMaeLNxN6-e-69">
          <mxGeometry relative="1" as="geometry" />
        </mxCell>
        <mxCell id="Yz96Kts3AmMaeLNxN6-e-87" value="&lt;font style=&quot;font-size: 18px;&quot;&gt;Tools&lt;/font&gt;" style="rounded=0;whiteSpace=wrap;html=1;fillColor=#1ba1e2;fontColor=#ffffff;strokeColor=#006EAF;" vertex="1" parent="1">
          <mxGeometry x="920" y="414" width="170" height="50" as="geometry" />
        </mxCell>
        <mxCell id="Yz96Kts3AmMaeLNxN6-e-88" value="&lt;span style=&quot;background-color: transparent; color: light-dark(rgb(0, 0, 0), rgb(255, 255, 255));&quot;&gt;Metabase, Apache Superset, Redash: SQL-driven dashboards&lt;/span&gt;&lt;br&gt;&lt;span style=&quot;background-color: transparent; color: light-dark(rgb(0, 0, 0), rgb(255, 255, 255));&quot;&gt;Grafana: metrics dashboards (works well with ClickHouse, Prometheus)&lt;/span&gt;&lt;br&gt;&lt;span style=&quot;background-color: transparent; color: light-dark(rgb(0, 0, 0), rgb(255, 255, 255));&quot;&gt;Power BI, Tableau: enterprise BI and reporting tools&lt;/span&gt;&lt;div&gt;&lt;span style=&quot;background-color: transparent; color: light-dark(rgb(0, 0, 0), rgb(255, 255, 255));&quot;&gt;Custom UI: React.js / Vue + Chart.js / D3&amp;nbsp;&lt;/span&gt;&lt;/div&gt;" style="rounded=1;whiteSpace=wrap;html=1;align=center;" vertex="1" parent="1">
          <mxGeometry x="870" y="505" width="290" height="185" as="geometry" />
        </mxCell>
        <mxCell id="Yz96Kts3AmMaeLNxN6-e-89" value="&lt;font style=&quot;font-size: 18px;&quot;&gt;Data Warehouses&lt;/font&gt;" style="rounded=0;whiteSpace=wrap;html=1;fillColor=#1ba1e2;fontColor=#ffffff;strokeColor=#006EAF;" vertex="1" parent="1">
          <mxGeometry x="485" y="620" width="170" height="50" as="geometry" />
        </mxCell>
        <mxCell id="Yz96Kts3AmMaeLNxN6-e-90" value="&lt;div&gt;PostgreSQL&lt;/div&gt;&lt;div&gt;BigQuery&lt;/div&gt;&lt;div&gt;Snowflake&lt;/div&gt;&lt;div&gt;Amazon Redshift&lt;/div&gt;&lt;div&gt;Azure Synapse&lt;/div&gt;" style="rounded=1;whiteSpace=wrap;html=1;" vertex="1" parent="1">
          <mxGeometry x="480" y="680" width="180" height="130" as="geometry" />
        </mxCell>
        <mxCell id="Yz96Kts3AmMaeLNxN6-e-91" value="&lt;font style=&quot;font-size: 14px;&quot;&gt;Visualization&lt;/font&gt;" style="rounded=1;whiteSpace=wrap;html=1;" vertex="1" parent="1">
          <mxGeometry x="945" y="130" width="120" height="40" as="geometry" />
        </mxCell>
        <mxCell id="Yz96Kts3AmMaeLNxN6-e-95" value="&lt;font style=&quot;font-size: 18px;&quot;&gt;Transformation tools&lt;/font&gt;" style="rounded=0;whiteSpace=wrap;html=1;fillColor=#1ba1e2;fontColor=#ffffff;strokeColor=#006EAF;" vertex="1" parent="1">
          <mxGeometry x="685" y="620" width="170" height="50" as="geometry" />
        </mxCell>
        <mxCell id="Yz96Kts3AmMaeLNxN6-e-97" value="&lt;div&gt;PySpark&lt;/div&gt;&lt;div&gt;dbt: SQL-driven transformations directly in warehouse&lt;/div&gt;&lt;div&gt;&lt;br&gt;&lt;/div&gt;" style="rounded=1;whiteSpace=wrap;html=1;" vertex="1" parent="1">
          <mxGeometry x="680" y="680" width="180" height="130" as="geometry" />
        </mxCell>
        <mxCell id="Yz96Kts3AmMaeLNxN6-e-98" value="A" style="verticalLabelPosition=bottom;verticalAlign=top;html=1;shape=mxgraph.infographic.shadedCube;isoAngle=15;fillColor=#10739E;strokeColor=none;fontStyle=1;fontColor=#10739E;fontSize=12;shadow=0;" vertex="1" parent="1">
          <mxGeometry x="895" y="270" width="40" height="80" as="geometry" />
        </mxCell>
        <mxCell id="Yz96Kts3AmMaeLNxN6-e-99" value="B" style="verticalLabelPosition=bottom;verticalAlign=top;html=1;shape=mxgraph.infographic.shadedCube;isoAngle=15;fillColor=#F2931E;strokeColor=none;fontStyle=1;fontColor=#F2931E;fontSize=12;shadow=0;" vertex="1" parent="1">
          <mxGeometry x="945" y="250" width="40" height="100" as="geometry" />
        </mxCell>
        <mxCell id="Yz96Kts3AmMaeLNxN6-e-100" value="C" style="verticalLabelPosition=bottom;verticalAlign=top;html=1;shape=mxgraph.infographic.shadedCube;isoAngle=15;fillColor=#AE4132;strokeColor=none;fontStyle=1;fontColor=#AE4132;fontSize=12;shadow=0;" vertex="1" parent="1">
          <mxGeometry x="995" y="260" width="40" height="90" as="geometry" />
        </mxCell>
        <mxCell id="Yz96Kts3AmMaeLNxN6-e-101" value="D" style="verticalLabelPosition=bottom;verticalAlign=top;html=1;shape=mxgraph.infographic.shadedCube;isoAngle=15;fillColor=#23445D;strokeColor=none;fontStyle=1;fontColor=#23445D;fontSize=12;shadow=0;" vertex="1" parent="1">
          <mxGeometry x="1045" y="300" width="40" height="50" as="geometry" />
        </mxCell>
        <mxCell id="Yz96Kts3AmMaeLNxN6-e-102" value="E" style="verticalLabelPosition=bottom;verticalAlign=top;html=1;shape=mxgraph.infographic.shadedCube;isoAngle=15;fillColor=#12AAB5;strokeColor=none;fontStyle=1;fontColor=#12AAB5;fontSize=12;shadow=0;" vertex="1" parent="1">
          <mxGeometry x="1095" y="280" width="40" height="70" as="geometry" />
        </mxCell>
        <mxCell id="Yz96Kts3AmMaeLNxN6-e-103" value="" style="verticalLabelPosition=top;verticalAlign=bottom;html=1;shape=mxgraph.infographic.shadedCube;isoAngle=15;fillColor=#CCCCCC;strokeColor=none;fontStyle=1;fontColor=#10739E;fontSize=12;shadow=0;align=left;opacity=70;" vertex="1" parent="1">
          <mxGeometry x="895" y="230" width="40" height="60" as="geometry" />
        </mxCell>
        <mxCell id="Yz96Kts3AmMaeLNxN6-e-104" value="" style="verticalLabelPosition=top;verticalAlign=bottom;html=1;shape=mxgraph.infographic.shadedCube;isoAngle=15;fillColor=#CCCCCC;strokeColor=none;fontStyle=1;fontColor=#F19A19;fontSize=12;shadow=0;align=left;opacity=70;" vertex="1" parent="1">
          <mxGeometry x="945" y="230" width="40" height="40" as="geometry" />
        </mxCell>
        <mxCell id="Yz96Kts3AmMaeLNxN6-e-105" value="" style="verticalLabelPosition=top;verticalAlign=bottom;html=1;shape=mxgraph.infographic.shadedCube;isoAngle=15;fillColor=#CCCCCC;strokeColor=none;fontStyle=1;fontColor=#D82A23;fontSize=12;shadow=0;align=left;opacity=70;" vertex="1" parent="1">
          <mxGeometry x="995" y="230" width="40" height="50" as="geometry" />
        </mxCell>
        <mxCell id="Yz96Kts3AmMaeLNxN6-e-106" value="" style="verticalLabelPosition=top;verticalAlign=bottom;html=1;shape=mxgraph.infographic.shadedCube;isoAngle=15;fillColor=#CCCCCC;strokeColor=none;fontStyle=1;fontColor=#4A5768;fontSize=12;shadow=0;align=left;opacity=70;" vertex="1" parent="1">
          <mxGeometry x="1045" y="230" width="40" height="90" as="geometry" />
        </mxCell>
        <mxCell id="Yz96Kts3AmMaeLNxN6-e-107" value="" style="verticalLabelPosition=top;verticalAlign=bottom;html=1;shape=mxgraph.infographic.shadedCube;isoAngle=15;fillColor=#CCCCCC;strokeColor=none;fontStyle=1;fontColor=#15AA96;fontSize=12;shadow=0;align=left;opacity=70;" vertex="1" parent="1">
          <mxGeometry x="1095" y="230" width="40" height="70" as="geometry" />
        </mxCell>
        <mxCell id="Yz96Kts3AmMaeLNxN6-e-109" value="" style="sketch=0;outlineConnect=0;fontColor=#232F3E;gradientColor=none;fillColor=#232F3D;strokeColor=none;dashed=0;verticalLabelPosition=bottom;verticalAlign=top;align=center;html=1;fontSize=12;fontStyle=0;aspect=fixed;pointerEvents=1;shape=mxgraph.aws4.metrics;" vertex="1" parent="1">
          <mxGeometry x="1065" y="134" width="39.55" height="36" as="geometry" />
        </mxCell>
        <mxCell id="Yz96Kts3AmMaeLNxN6-e-110" value="" style="shape=cylinder3;whiteSpace=wrap;html=1;boundedLbl=1;backgroundOutline=1;size=4.00006103515625;" vertex="1" parent="1">
          <mxGeometry x="445" y="142" width="20" height="20" as="geometry" />
        </mxCell>
      </root>
    </mxGraphModel>
  </diagram>
</mxfile>
